<?xml version="1.0" encoding="UTF-8" standalone="no"?>
<!-- Created with Inkscape (http://www.inkscape.org/) -->

<svg
   xmlns:dc="http://purl.org/dc/elements/1.1/"
   xmlns:cc="http://creativecommons.org/ns#"
   xmlns:rdf="http://www.w3.org/1999/02/22-rdf-syntax-ns#"
   xmlns:svg="http://www.w3.org/2000/svg"
   xmlns="http://www.w3.org/2000/svg"
   xmlns:xlink="http://www.w3.org/1999/xlink"
   xmlns:sodipodi="http://sodipodi.sourceforge.net/DTD/sodipodi-0.dtd"
   xmlns:inkscape="http://www.inkscape.org/namespaces/inkscape"
   width="256"
   height="256"
   viewBox="0 0 67.733332 67.733335"
   version="1.1"
   id="svg4352"
   inkscape:version="0.92.1 r"
   sodipodi:docname="logo.svg">
  <defs
     id="defs4346">
    <filter
       inkscape:collect="always"
       style="color-interpolation-filters:sRGB"
       id="filter4530-5"
       x="-0.108"
       width="1.216"
       y="-0.108"
       height="1.216">
      <feGaussianBlur
         inkscape:collect="always"
         stdDeviation="13.68"
         id="feGaussianBlur4532-7" />
    </filter>
    <linearGradient
       inkscape:collect="always"
       xlink:href="#linearGradient6005"
       id="linearGradient4665"
       gradientUnits="userSpaceOnUse"
       gradientTransform="matrix(3.7870911,0,0,3.7870911,-1047.2495,434.57846)"
       x1="343.67523"
       y1="195.03468"
       x2="397.68188"
       y2="249.25777" />
    <linearGradient
       inkscape:collect="always"
       id="linearGradient6005">
      <stop
         style="stop-color:#1e88e5;stop-opacity:1;"
         offset="0"
         id="stop6007" />
      <stop
         style="stop-color:#1e88e5;stop-opacity:0"
         offset="1"
         id="stop6009" />
    </linearGradient>
    <filter
       style="color-interpolation-filters:sRGB"
       inkscape:label="Drop Shadow"
       id="filter6976-3">
      <feFlood
         flood-opacity="0.2"
         flood-color="rgb(38,50,56)"
         result="flood"
         id="feFlood6978-1" />
      <feComposite
         in="flood"
         in2="SourceGraphic"
         operator="in"
         result="composite1"
         id="feComposite6980-2" />
      <feGaussianBlur
         in="composite1"
         stdDeviation="8"
         result="blur"
         id="feGaussianBlur6982-2" />
      <feOffset
         dx="0"
         dy="8"
         result="offset"
         id="feOffset6984-9" />
      <feComposite
         in="SourceGraphic"
         in2="offset"
         operator="over"
         result="composite2"
         id="feComposite6986-3" />
    </filter>
    <filter
       style="color-interpolation-filters:sRGB"
       inkscape:label="Drop Shadow"
       id="filter4235">
      <feFlood
         flood-opacity="0.2"
         flood-color="rgb(38,50,56)"
         result="flood"
         id="feFlood4225" />
      <feComposite
         in="flood"
         in2="SourceGraphic"
         operator="in"
         result="composite1"
         id="feComposite4227" />
      <feGaussianBlur
         in="composite1"
         stdDeviation="8"
         result="blur"
         id="feGaussianBlur4229" />
      <feOffset
         dx="0"
         dy="8"
         result="offset"
         id="feOffset4231" />
      <feComposite
         in="SourceGraphic"
         in2="offset"
         operator="over"
         result="composite2"
         id="feComposite4233" />
    </filter>
    <filter
       style="color-interpolation-filters:sRGB"
       inkscape:label="Drop Shadow"
       id="filter4254">
      <feFlood
         flood-opacity="0.2"
         flood-color="rgb(38,50,56)"
         result="flood"
         id="feFlood4244" />
      <feComposite
         in="flood"
         in2="SourceGraphic"
         operator="in"
         result="composite1"
         id="feComposite4246" />
      <feGaussianBlur
         in="composite1"
         stdDeviation="8"
         result="blur"
         id="feGaussianBlur4248" />
      <feOffset
         dx="0"
         dy="8"
         result="offset"
         id="feOffset4250" />
      <feComposite
         in="SourceGraphic"
         in2="offset"
         operator="over"
         result="composite2"
         id="feComposite4252" />
    </filter>
    <filter
       style="color-interpolation-filters:sRGB"
       inkscape:label="Drop Shadow"
       id="filter4273">
      <feFlood
         flood-opacity="0.2"
         flood-color="rgb(38,50,56)"
         result="flood"
         id="feFlood4263" />
      <feComposite
         in="flood"
         in2="SourceGraphic"
         operator="in"
         result="composite1"
         id="feComposite4265" />
      <feGaussianBlur
         in="composite1"
         stdDeviation="8"
         result="blur"
         id="feGaussianBlur4267" />
      <feOffset
         dx="0"
         dy="8"
         result="offset"
         id="feOffset4269" />
      <feComposite
         in="SourceGraphic"
         in2="offset"
         operator="over"
         result="composite2"
         id="feComposite4271" />
    </filter>
    <filter
       style="color-interpolation-filters:sRGB"
       inkscape:label="Drop Shadow"
       id="filter4292">
      <feFlood
         flood-opacity="0.2"
         flood-color="rgb(38,50,56)"
         result="flood"
         id="feFlood4282" />
      <feComposite
         in="flood"
         in2="SourceGraphic"
         operator="in"
         result="composite1"
         id="feComposite4284" />
      <feGaussianBlur
         in="composite1"
         stdDeviation="8"
         result="blur"
         id="feGaussianBlur4286" />
      <feOffset
         dx="0"
         dy="8"
         result="offset"
         id="feOffset4288" />
      <feComposite
         in="SourceGraphic"
         in2="offset"
         operator="over"
         result="composite2"
         id="feComposite4290" />
    </filter>
    <filter
       inkscape:collect="always"
       style="color-interpolation-filters:sRGB"
       id="filter4508-5"
       x="-0.08353132"
       width="1.1670626"
       y="-0.15274262"
       height="1.3054852">
      <feGaussianBlur
         inkscape:collect="always"
         stdDeviation="7.9085167"
         id="feGaussianBlur4510-3" />
    </filter>
    <linearGradient
       inkscape:collect="always"
       xlink:href="#linearGradient6005"
       id="linearGradient5083"
       gradientUnits="userSpaceOnUse"
       gradientTransform="matrix(3.7870911,0,0,3.7870911,-1047.2495,434.57846)"
       x1="343.67523"
       y1="195.03468"
       x2="397.68188"
       y2="249.25777" />
    <linearGradient
       inkscape:collect="always"
       xlink:href="#linearGradient6005"
       id="linearGradient5085"
       gradientUnits="userSpaceOnUse"
       gradientTransform="matrix(3.7870911,0,0,3.7870911,-1047.2495,434.57846)"
       x1="343.67523"
       y1="195.03468"
       x2="397.68188"
       y2="249.25777" />
    <linearGradient
       inkscape:collect="always"
       xlink:href="#linearGradient6005"
       id="linearGradient5087"
       gradientUnits="userSpaceOnUse"
       gradientTransform="matrix(3.7870911,0,0,3.7870911,-1047.2495,434.57846)"
       x1="343.67523"
       y1="195.03468"
       x2="397.68188"
       y2="249.25777" />
    <linearGradient
       inkscape:collect="always"
       xlink:href="#linearGradient6005"
       id="linearGradient5089"
       gradientUnits="userSpaceOnUse"
       gradientTransform="matrix(3.7870911,0,0,3.7870911,-1047.2495,434.57846)"
       x1="343.67523"
       y1="195.03468"
       x2="397.68188"
       y2="249.25777" />
    <linearGradient
       inkscape:collect="always"
       xlink:href="#linearGradient6005"
       id="linearGradient5091"
       gradientUnits="userSpaceOnUse"
       gradientTransform="matrix(3.7870911,0,0,3.7870911,-1047.2495,434.57846)"
       x1="343.67523"
       y1="195.03468"
       x2="397.68188"
       y2="249.25777" />
  </defs>
  <sodipodi:namedview
     id="base"
     pagecolor="#ffffff"
     bordercolor="#666666"
     borderopacity="1.0"
     inkscape:pageopacity="0.0"
     inkscape:pageshadow="2"
     inkscape:zoom="0.98994949"
     inkscape:cx="124.07457"
     inkscape:cy="193.80571"
     inkscape:document-units="mm"
     inkscape:current-layer="layer1"
     showgrid="false"
     units="px"
     inkscape:window-width="1920"
     inkscape:window-height="1025"
     inkscape:window-x="0"
     inkscape:window-y="27"
     inkscape:window-maximized="1" />
  <metadata
     id="metadata4349">
    <rdf:RDF>
      <cc:Work
         rdf:about="">
        <dc:format>image/svg+xml</dc:format>
        <dc:type
           rdf:resource="http://purl.org/dc/dcmitype/StillImage" />
        <dc:title></dc:title>
      </cc:Work>
    </rdf:RDF>
  </metadata>
  <g
     inkscape:label="Layer 1"
     inkscape:groupmode="layer"
     id="layer1"
     transform="translate(0,-229.26665)">
    <g
       id="g4579"
       transform="matrix(0.17177761,0,0,0.17177761,-30.630101,48.754854)">
      <circle
         r="152"
         cy="1170"
         cx="352"
         id="circle4581"
         style="fill:#263238;fill-opacity:0.2;filter:url(#filter4530-5)"
         transform="scale(1.0666667)" />
      <g
         id="g4583">
        <circle
           style="fill:#42a5f5;fill-opacity:1;stroke-width:1.06666672"
           id="circle4585"
           cx="375.46667"
           cy="1239.4667"
           r="162.13333" />
        <path
           id="path4587"
           d="m 322.67111,1173.1929 c -37.85205,0 -68.39168,29.5562 -68.39168,66.2749 0,17.9775 7.32011,34.2368 19.23542,46.1521 l 115.34165,115.3417 a 162.13333,162.13333 0 0 0 148.07509,-148.1333 l -59.51466,-59.5147 c -12.42144,-12.4214 -29.83446,-20.1207 -49.15414,-20.1207 h -27.52501 v 10.5082 l -10.50827,-10.5082 h -67.55626 z"
           style="fill:url(#linearGradient5083);fill-opacity:1;stroke-width:1.06666672"
           inkscape:connector-curvature="0" />
        <path
           inkscape:connector-curvature="0"
           id="path4589"
           d="m 322.67153,1173.1929 c -37.85208,0 -68.39176,29.5554 -68.39176,66.274 0,36.7187 30.53968,66.2741 68.39176,66.2741 h 67.55773 v -44.4581 h -41.20189 l -9.5081,9.4205 c 0.76568,1.5264 1.33446,3.1425 1.33446,4.9581 0,6.4082 -5.37569,11.569 -11.84345,11.569 -6.46777,0 -11.67666,-5.1608 -11.67666,-11.569 0,-6.4082 5.20889,-11.569 11.67666,-11.569 1.8135,0 3.45694,0.4317 5.00427,1.1569 l 11.84349,-11.5691 h 44.37122 v -15.0398 h -82.57055 c -1.61027,4.5019 -5.74707,7.7678 -10.8426,7.7678 -6.46778,0 -11.84348,-5.1608 -11.84348,-11.5689 0,-6.4083 5.3757,-11.5692 11.84348,-11.5692 5.09553,0 9.23233,3.266 10.8426,7.7679 h 82.57055 v -1.3223 l -4.83744,-4.7928 h -52.54491 l -9.34135,-9.2553 -5.8383,-5.7845 -6.83917,-6.9414 h -0.16664 c -0.71709,0.2825 -1.52317,0.4959 -2.33535,0.4959 -3.47117,0 -6.33875,-2.8412 -6.33875,-6.2805 0,-3.4391 2.86758,-6.115 6.33875,-6.115 3.47118,0 6.33876,2.6759 6.33876,6.115 0,0.8047 -0.21548,1.6034 -0.50016,2.3138 -0.0227,0.049 0.0227,0.1171 0,0.1652 l 7.00601,6.9414 5.83829,5.7845 7.84003,7.7678 h 45.70576 l -8.34046,-8.2636 h -29.35844 l -12.8443,-12.7259 h -0.16663 c -0.71262,0.2779 -1.52317,0.4958 -2.33535,0.4958 -3.47117,0 -6.17194,-2.8411 -6.17194,-6.2804 0,-3.4392 2.70077,-6.2803 6.17194,-6.2803 3.47118,0 6.33876,2.8411 6.33876,6.2803 0,0.8047 -0.22003,1.6078 -0.50016,2.3139 -0.0227,0.048 0.0227,0.1174 0,0.1651 l 11.50984,11.2385 h 29.35844 l 16.01368,15.8661 v -49.7469 h -67.55776 z m 78.06672,0 v 57.8452 7.6024 67.1005 h 27.52351 c 37.8521,0 68.3918,-29.5554 68.3918,-66.2741 0,-36.7186 -30.5397,-66.274 -68.3918,-66.274 z"
           style="display:inline;fill:#ffffff;fill-opacity:1;stroke-width:1.06666672" />
        <path
           inkscape:connector-curvature="0"
           id="path4591"
           d="m 302.50456,1099.8683 c -35.48633,0 -64.11728,27.7082 -64.11728,62.1319 0,34.4238 28.63095,62.132 64.11728,62.132 h 63.33537 v -41.6795 h -38.62677 l -8.91384,8.8317 c 0.71782,1.431 1.25105,2.9461 1.25105,4.6483 0,6.0076 -5.03971,10.8459 -11.10323,10.8459 -6.06354,0 -10.94687,-4.8383 -10.94687,-10.8459 0,-6.0077 4.88333,-10.846 10.94687,-10.846 1.70015,0 3.24088,0.4047 4.6915,1.0846 l 11.10327,-10.846 h 41.59802 v -14.0998 h -77.40989 c -1.50963,4.2205 -5.38788,7.2823 -10.16494,7.2823 -6.06354,0 -11.10326,-4.8383 -11.10326,-10.8459 0,-6.0077 5.03972,-10.8461 11.10326,-10.8461 4.77706,0 8.65531,3.0619 10.16494,7.2824 h 77.40989 v -1.2396 l -4.5351,-4.4933 h -49.26085 l -8.75752,-8.6768 -5.4734,-5.423 -6.41173,-6.5076 h -0.15622 c -0.67227,0.2649 -1.42797,0.4649 -2.18939,0.4649 -3.25422,0 -5.94258,-2.6636 -5.94258,-5.8879 0,-3.2242 2.68836,-5.7328 5.94258,-5.7328 3.25423,0 5.94259,2.5086 5.94259,5.7328 0,0.7544 -0.20202,1.5032 -0.4689,2.1692 -0.0213,0.046 0.0213,0.1097 0,0.1548 l 6.56813,6.5076 5.4734,5.423 7.35003,7.2823 h 42.84915 l -7.81919,-7.7471 H 321.4274 l -12.04153,-11.9306 h -0.15622 c -0.66808,0.2606 -1.42797,0.4648 -2.18939,0.4648 -3.25422,0 -5.78619,-2.6635 -5.78619,-5.8878 0,-3.2243 2.53197,-5.8878 5.78619,-5.8878 3.25423,0 5.94259,2.6635 5.94259,5.8878 0,0.7544 -0.20628,1.5073 -0.4689,2.1692 -0.0213,0.045 0.0213,0.1101 0,0.1548 l 10.79047,10.5361 h 27.52354 l 15.01282,14.8745 v -46.6377 h -63.3354 z m 73.18755,0 v 54.2299 7.1273 62.9067 h 25.80329 c 35.48634,0 64.11731,-27.7082 64.11731,-62.132 0,-34.4237 -28.63097,-62.1319 -64.11731,-62.1319 z"
           style="display:inline;fill:#ffffff;fill-opacity:1;filter:url(#filter6976-3)"
           transform="scale(1.0666667)" />
        <path
           inkscape:connector-curvature="0"
           id="path4593"
           d="m 327.51042,1187.075 c -3.47117,0 -6.17292,2.842 -6.17292,6.2813 0,0.3639 0.0355,0.7187 0.0938,1.0666 0.49128,-2.9402 2.97487,-5.2146 6.07917,-5.2146 3.08164,0 5.68102,2.241 6.22708,5.15 0.0655,-0.3296 0.11042,-0.6649 0.11042,-1.002 0,-3.4393 -2.86632,-6.2813 -6.3375,-6.2813 z m -19.18334,3.9667 c -3.47117,0 -6.33958,2.6754 -6.33958,6.1146 0,0.3649 0.0381,0.722 0.0999,1.0708 0.52046,-2.911 3.13612,-5.0521 6.23958,-5.0521 3.08065,0 5.67987,2.1092 6.22708,4.9875 0.0654,-0.3304 0.11042,-0.6677 0.11042,-1.0062 0,-3.4392 -2.86632,-6.1146 -6.3375,-6.1146 z m 25.45417,5.2166 c -0.0847,0.5396 -0.24295,1.0639 -0.43334,1.5438 -0.0227,0.048 0.0227,0.119 0,0.1666 l 11.51043,11.2376 h 29.35832 l 16.0125,15.8667 v -2.1334 l -16.0125,-15.8666 h -29.35832 z m -19.18542,3.8042 c -0.0838,0.537 -0.2383,1.0602 -0.43124,1.5417 -0.0227,0.049 0.0227,0.1164 0,0.1645 l 7.00625,6.9417 5.83749,5.7854 7.84168,7.7667 h 45.70416 L 378.4,1220.1292 h -43.54999 l -7.84168,-7.7667 -5.83749,-5.7854 z m -17.77917,23.2083 c -6.46776,0 -11.84374,5.1606 -11.84374,11.5688 0,0.3604 0.023,0.7149 0.0562,1.0666 0.55787,-5.9036 5.68347,-10.502 11.7875,-10.502 5.09554,0 9.2314,3.2648 10.84167,7.7667 h 82.57083 v -1.3209 l -0.82083,-0.8125 h -81.75 c -1.61027,-4.5018 -5.74613,-7.7667 -10.84167,-7.7667 z m -42.51041,17.2625 c -0.005,0.3564 -0.0271,0.7089 -0.0271,1.0667 0,36.7187 30.53958,66.275 68.39167,66.275 h 67.55832 v -2.1333 h -67.55832 c -37.48326,0 -67.77741,-28.9878 -68.36459,-65.2084 z m 242.32083,0 c -0.58718,36.2206 -30.88132,65.2084 -68.36458,65.2084 h -27.525 v 2.1333 h 27.525 c 37.85209,0 68.39167,-29.5563 68.39167,-66.275 0,-0.3578 -0.0213,-0.7103 -0.0271,-1.0667 z m -150.76874,13.1458 -11.84376,11.5709 c -1.54733,-0.7252 -3.19067,-1.1584 -5.00416,-1.1584 -6.46777,0 -11.67709,5.1606 -11.67709,11.5688 0,0.3598 0.022,0.7155 0.0542,1.0666 0.54114,-5.9036 5.51888,-10.502 11.62292,-10.502 1.8135,0 3.45683,0.4331 5.00416,1.1584 l 11.84376,-11.5709 h 44.37082 v -2.1334 h -44.37082 z m -5.69167,18.5167 -0.64792,0.6417 c 0.63536,1.2666 1.11495,2.6012 1.26667,4.0541 0.0441,-0.404 0.0687,-0.8154 0.0687,-1.2312 0,-1.2377 -0.27667,-2.3775 -0.6875,-3.4646 z"
           style="display:inline;fill:#1a237e;fill-opacity:0.2;stroke-width:1.06666672" />
        <path
           id="path4595"
           d="m 537.55622,1238.2166 a 162.13333,162.13333 0 0 1 -162.08957,161.2501 162.13333,162.13333 0 0 1 -162.08958,-160.8833 162.13333,162.13333 0 0 0 -0.0437,0.8833 A 162.13333,162.13333 0 0 0 375.46667,1401.6 162.13333,162.13333 0 0 0 537.6,1239.4667 a 162.13333,162.13333 0 0 0 -0.0437,-1.2501 z"
           style="fill:#1a237e;fill-opacity:0.2;stroke-width:1.06666672"
           inkscape:connector-curvature="0" />
      </g>
      <g
         id="g4597">
        <circle
           r="162.13333"
           cy="1239.4667"
           cx="375.46667"
           id="circle4599"
           style="fill:#42a5f5;fill-opacity:1;stroke-width:1.06666672" />
        <path
           inkscape:connector-curvature="0"
           style="fill:url(#linearGradient5085);fill-opacity:1;stroke-width:1.06666672"
           d="m 322.67111,1173.1929 c -37.85205,0 -68.39168,29.5562 -68.39168,66.2749 0,17.9775 7.32011,34.2368 19.23542,46.1521 l 115.34165,115.3417 a 162.13333,162.13333 0 0 0 148.07509,-148.1333 l -59.51466,-59.5147 c -12.42144,-12.4214 -29.83446,-20.1207 -49.15414,-20.1207 h -27.52501 v 10.5082 l -10.50827,-10.5082 h -67.55626 z"
           id="path4601" />
        <path
           style="display:inline;fill:#ffffff;fill-opacity:1;stroke-width:1.06666672"
           d="m 322.67153,1173.1929 c -37.85208,0 -68.39176,29.5554 -68.39176,66.274 0,36.7187 30.53968,66.2741 68.39176,66.2741 h 67.55773 v -44.4581 h -41.20189 l -9.5081,9.4205 c 0.76568,1.5264 1.33446,3.1425 1.33446,4.9581 0,6.4082 -5.37569,11.569 -11.84345,11.569 -6.46777,0 -11.67666,-5.1608 -11.67666,-11.569 0,-6.4082 5.20889,-11.569 11.67666,-11.569 1.8135,0 3.45694,0.4317 5.00427,1.1569 l 11.84349,-11.5691 h 44.37122 v -15.0398 h -82.57055 c -1.61027,4.5019 -5.74707,7.7678 -10.8426,7.7678 -6.46778,0 -11.84348,-5.1608 -11.84348,-11.5689 0,-6.4083 5.3757,-11.5692 11.84348,-11.5692 5.09553,0 9.23233,3.266 10.8426,7.7679 h 82.57055 v -1.3223 l -4.83744,-4.7928 h -52.54491 l -9.34135,-9.2553 -5.8383,-5.7845 -6.83917,-6.9414 h -0.16664 c -0.71709,0.2825 -1.52317,0.4959 -2.33535,0.4959 -3.47117,0 -6.33875,-2.8412 -6.33875,-6.2805 0,-3.4391 2.86758,-6.115 6.33875,-6.115 3.47118,0 6.33876,2.6759 6.33876,6.115 0,0.8047 -0.21548,1.6034 -0.50016,2.3138 -0.0227,0.049 0.0227,0.1171 0,0.1652 l 7.00601,6.9414 5.83829,5.7845 7.84003,7.7678 h 45.70576 l -8.34046,-8.2636 h -29.35844 l -12.8443,-12.7259 h -0.16663 c -0.71262,0.2779 -1.52317,0.4958 -2.33535,0.4958 -3.47117,0 -6.17194,-2.8411 -6.17194,-6.2804 0,-3.4392 2.70077,-6.2803 6.17194,-6.2803 3.47118,0 6.33876,2.8411 6.33876,6.2803 0,0.8047 -0.22003,1.6078 -0.50016,2.3139 -0.0227,0.048 0.0227,0.1174 0,0.1651 l 11.50984,11.2385 h 29.35844 l 16.01368,15.8661 v -49.7469 h -67.55776 z m 78.06672,0 v 57.8452 7.6024 67.1005 h 27.52351 c 37.8521,0 68.3918,-29.5554 68.3918,-66.2741 0,-36.7186 -30.5397,-66.274 -68.3918,-66.274 z"
           id="path4603"
           inkscape:connector-curvature="0" />
        <path
           style="display:inline;fill:#ffffff;fill-opacity:1;filter:url(#filter6976-3)"
           d="m 302.50456,1099.8683 c -35.48633,0 -64.11728,27.7082 -64.11728,62.1319 0,34.4238 28.63095,62.132 64.11728,62.132 h 63.33537 v -41.6795 h -38.62677 l -8.91384,8.8317 c 0.71782,1.431 1.25105,2.9461 1.25105,4.6483 0,6.0076 -5.03971,10.8459 -11.10323,10.8459 -6.06354,0 -10.94687,-4.8383 -10.94687,-10.8459 0,-6.0077 4.88333,-10.846 10.94687,-10.846 1.70015,0 3.24088,0.4047 4.6915,1.0846 l 11.10327,-10.846 h 41.59802 v -14.0998 h -77.40989 c -1.50963,4.2205 -5.38788,7.2823 -10.16494,7.2823 -6.06354,0 -11.10326,-4.8383 -11.10326,-10.8459 0,-6.0077 5.03972,-10.8461 11.10326,-10.8461 4.77706,0 8.65531,3.0619 10.16494,7.2824 h 77.40989 v -1.2396 l -4.5351,-4.4933 h -49.26085 l -8.75752,-8.6768 -5.4734,-5.423 -6.41173,-6.5076 h -0.15622 c -0.67227,0.2649 -1.42797,0.4649 -2.18939,0.4649 -3.25422,0 -5.94258,-2.6636 -5.94258,-5.8879 0,-3.2242 2.68836,-5.7328 5.94258,-5.7328 3.25423,0 5.94259,2.5086 5.94259,5.7328 0,0.7544 -0.20202,1.5032 -0.4689,2.1692 -0.0213,0.046 0.0213,0.1097 0,0.1548 l 6.56813,6.5076 5.4734,5.423 7.35003,7.2823 h 42.84915 l -7.81919,-7.7471 H 321.4274 l -12.04153,-11.9306 h -0.15622 c -0.66808,0.2606 -1.42797,0.4648 -2.18939,0.4648 -3.25422,0 -5.78619,-2.6635 -5.78619,-5.8878 0,-3.2243 2.53197,-5.8878 5.78619,-5.8878 3.25423,0 5.94259,2.6635 5.94259,5.8878 0,0.7544 -0.20628,1.5073 -0.4689,2.1692 -0.0213,0.045 0.0213,0.1101 0,0.1548 l 10.79047,10.5361 h 27.52354 l 15.01282,14.8745 v -46.6377 h -63.3354 z m 73.18755,0 v 54.2299 7.1273 62.9067 h 25.80329 c 35.48634,0 64.11731,-27.7082 64.11731,-62.132 0,-34.4237 -28.63097,-62.1319 -64.11731,-62.1319 z"
           id="path4605"
           inkscape:connector-curvature="0"
           transform="scale(1.0666667)" />
        <path
           style="display:inline;fill:#1a237e;fill-opacity:0.2;stroke-width:1.06666672"
           d="m 327.51042,1187.075 c -3.47117,0 -6.17292,2.842 -6.17292,6.2813 0,0.3639 0.0355,0.7187 0.0938,1.0666 0.49128,-2.9402 2.97487,-5.2146 6.07917,-5.2146 3.08164,0 5.68102,2.241 6.22708,5.15 0.0655,-0.3296 0.11042,-0.6649 0.11042,-1.002 0,-3.4393 -2.86632,-6.2813 -6.3375,-6.2813 z m -19.18334,3.9667 c -3.47117,0 -6.33958,2.6754 -6.33958,6.1146 0,0.3649 0.0381,0.722 0.0999,1.0708 0.52046,-2.911 3.13612,-5.0521 6.23958,-5.0521 3.08065,0 5.67987,2.1092 6.22708,4.9875 0.0654,-0.3304 0.11042,-0.6677 0.11042,-1.0062 0,-3.4392 -2.86632,-6.1146 -6.3375,-6.1146 z m 25.45417,5.2166 c -0.0847,0.5396 -0.24295,1.0639 -0.43334,1.5438 -0.0227,0.048 0.0227,0.119 0,0.1666 l 11.51043,11.2376 h 29.35832 l 16.0125,15.8667 v -2.1334 l -16.0125,-15.8666 h -29.35832 z m -19.18542,3.8042 c -0.0838,0.537 -0.2383,1.0602 -0.43124,1.5417 -0.0227,0.049 0.0227,0.1164 0,0.1645 l 7.00625,6.9417 5.83749,5.7854 7.84168,7.7667 h 45.70416 L 378.4,1220.1292 h -43.54999 l -7.84168,-7.7667 -5.83749,-5.7854 z m -17.77917,23.2083 c -6.46776,0 -11.84374,5.1606 -11.84374,11.5688 0,0.3604 0.023,0.7149 0.0562,1.0666 0.55787,-5.9036 5.68347,-10.502 11.7875,-10.502 5.09554,0 9.2314,3.2648 10.84167,7.7667 h 82.57083 v -1.3209 l -0.82083,-0.8125 h -81.75 c -1.61027,-4.5018 -5.74613,-7.7667 -10.84167,-7.7667 z m -42.51041,17.2625 c -0.005,0.3564 -0.0271,0.7089 -0.0271,1.0667 0,36.7187 30.53958,66.275 68.39167,66.275 h 67.55832 v -2.1333 h -67.55832 c -37.48326,0 -67.77741,-28.9878 -68.36459,-65.2084 z m 242.32083,0 c -0.58718,36.2206 -30.88132,65.2084 -68.36458,65.2084 h -27.525 v 2.1333 h 27.525 c 37.85209,0 68.39167,-29.5563 68.39167,-66.275 0,-0.3578 -0.0213,-0.7103 -0.0271,-1.0667 z m -150.76874,13.1458 -11.84376,11.5709 c -1.54733,-0.7252 -3.19067,-1.1584 -5.00416,-1.1584 -6.46777,0 -11.67709,5.1606 -11.67709,11.5688 0,0.3598 0.022,0.7155 0.0542,1.0666 0.54114,-5.9036 5.51888,-10.502 11.62292,-10.502 1.8135,0 3.45683,0.4331 5.00416,1.1584 l 11.84376,-11.5709 h 44.37082 v -2.1334 h -44.37082 z m -5.69167,18.5167 -0.64792,0.6417 c 0.63536,1.2666 1.11495,2.6012 1.26667,4.0541 0.0441,-0.404 0.0687,-0.8154 0.0687,-1.2312 0,-1.2377 -0.27667,-2.3775 -0.6875,-3.4646 z"
           id="path4607"
           inkscape:connector-curvature="0" />
        <path
           inkscape:connector-curvature="0"
           style="fill:#1a237e;fill-opacity:0.2;stroke-width:1.06666672"
           d="m 537.55622,1238.2166 a 162.13333,162.13333 0 0 1 -162.08957,161.2501 162.13333,162.13333 0 0 1 -162.08958,-160.8833 162.13333,162.13333 0 0 0 -0.0437,0.8833 A 162.13333,162.13333 0 0 0 375.46667,1401.6 162.13333,162.13333 0 0 0 537.6,1239.4667 a 162.13333,162.13333 0 0 0 -0.0437,-1.2501 z"
           id="path4609" />
      </g>
      <g
         id="g4611">
        <circle
           style="fill:#42a5f5;fill-opacity:1;stroke-width:1.06666672"
           id="circle4613"
           cx="375.46667"
           cy="1239.4667"
           r="162.13333" />
        <path
           id="path4615"
           d="m 322.67111,1173.1929 c -37.85205,0 -68.39168,29.5562 -68.39168,66.2749 0,17.9775 7.32011,34.2368 19.23542,46.1521 l 115.34165,115.3417 a 162.13333,162.13333 0 0 0 148.07509,-148.1333 l -59.51466,-59.5147 c -12.42144,-12.4214 -29.83446,-20.1207 -49.15414,-20.1207 h -27.52501 v 10.5082 l -10.50827,-10.5082 h -67.55626 z"
           style="fill:url(#linearGradient5087);fill-opacity:1;stroke-width:1.06666672"
           inkscape:connector-curvature="0" />
        <path
           inkscape:connector-curvature="0"
           id="path4617"
           d="m 322.67153,1173.1929 c -37.85208,0 -68.39176,29.5554 -68.39176,66.274 0,36.7187 30.53968,66.2741 68.39176,66.2741 h 67.55773 v -44.4581 h -41.20189 l -9.5081,9.4205 c 0.76568,1.5264 1.33446,3.1425 1.33446,4.9581 0,6.4082 -5.37569,11.569 -11.84345,11.569 -6.46777,0 -11.67666,-5.1608 -11.67666,-11.569 0,-6.4082 5.20889,-11.569 11.67666,-11.569 1.8135,0 3.45694,0.4317 5.00427,1.1569 l 11.84349,-11.5691 h 44.37122 v -15.0398 h -82.57055 c -1.61027,4.5019 -5.74707,7.7678 -10.8426,7.7678 -6.46778,0 -11.84348,-5.1608 -11.84348,-11.5689 0,-6.4083 5.3757,-11.5692 11.84348,-11.5692 5.09553,0 9.23233,3.266 10.8426,7.7679 h 82.57055 v -1.3223 l -4.83744,-4.7928 h -52.54491 l -9.34135,-9.2553 -5.8383,-5.7845 -6.83917,-6.9414 h -0.16664 c -0.71709,0.2825 -1.52317,0.4959 -2.33535,0.4959 -3.47117,0 -6.33875,-2.8412 -6.33875,-6.2805 0,-3.4391 2.86758,-6.115 6.33875,-6.115 3.47118,0 6.33876,2.6759 6.33876,6.115 0,0.8047 -0.21548,1.6034 -0.50016,2.3138 -0.0227,0.049 0.0227,0.1171 0,0.1652 l 7.00601,6.9414 5.83829,5.7845 7.84003,7.7678 h 45.70576 l -8.34046,-8.2636 h -29.35844 l -12.8443,-12.7259 h -0.16663 c -0.71262,0.2779 -1.52317,0.4958 -2.33535,0.4958 -3.47117,0 -6.17194,-2.8411 -6.17194,-6.2804 0,-3.4392 2.70077,-6.2803 6.17194,-6.2803 3.47118,0 6.33876,2.8411 6.33876,6.2803 0,0.8047 -0.22003,1.6078 -0.50016,2.3139 -0.0227,0.048 0.0227,0.1174 0,0.1651 l 11.50984,11.2385 h 29.35844 l 16.01368,15.8661 v -49.7469 h -67.55776 z m 78.06672,0 v 57.8452 7.6024 67.1005 h 27.52351 c 37.8521,0 68.3918,-29.5554 68.3918,-66.2741 0,-36.7186 -30.5397,-66.274 -68.3918,-66.274 z"
           style="display:inline;fill:#ffffff;fill-opacity:1;stroke-width:1.06666672" />
        <path
           inkscape:connector-curvature="0"
           id="path4619"
           d="m 302.50456,1099.8683 c -35.48633,0 -64.11728,27.7082 -64.11728,62.1319 0,34.4238 28.63095,62.132 64.11728,62.132 h 63.33537 v -41.6795 h -38.62677 l -8.91384,8.8317 c 0.71782,1.431 1.25105,2.9461 1.25105,4.6483 0,6.0076 -5.03971,10.8459 -11.10323,10.8459 -6.06354,0 -10.94687,-4.8383 -10.94687,-10.8459 0,-6.0077 4.88333,-10.846 10.94687,-10.846 1.70015,0 3.24088,0.4047 4.6915,1.0846 l 11.10327,-10.846 h 41.59802 v -14.0998 h -77.40989 c -1.50963,4.2205 -5.38788,7.2823 -10.16494,7.2823 -6.06354,0 -11.10326,-4.8383 -11.10326,-10.8459 0,-6.0077 5.03972,-10.8461 11.10326,-10.8461 4.77706,0 8.65531,3.0619 10.16494,7.2824 h 77.40989 v -1.2396 l -4.5351,-4.4933 h -49.26085 l -8.75752,-8.6768 -5.4734,-5.423 -6.41173,-6.5076 h -0.15622 c -0.67227,0.2649 -1.42797,0.4649 -2.18939,0.4649 -3.25422,0 -5.94258,-2.6636 -5.94258,-5.8879 0,-3.2242 2.68836,-5.7328 5.94258,-5.7328 3.25423,0 5.94259,2.5086 5.94259,5.7328 0,0.7544 -0.20202,1.5032 -0.4689,2.1692 -0.0213,0.046 0.0213,0.1097 0,0.1548 l 6.56813,6.5076 5.4734,5.423 7.35003,7.2823 h 42.84915 l -7.81919,-7.7471 H 321.4274 l -12.04153,-11.9306 h -0.15622 c -0.66808,0.2606 -1.42797,0.4648 -2.18939,0.4648 -3.25422,0 -5.78619,-2.6635 -5.78619,-5.8878 0,-3.2243 2.53197,-5.8878 5.78619,-5.8878 3.25423,0 5.94259,2.6635 5.94259,5.8878 0,0.7544 -0.20628,1.5073 -0.4689,2.1692 -0.0213,0.045 0.0213,0.1101 0,0.1548 l 10.79047,10.5361 h 27.52354 l 15.01282,14.8745 v -46.6377 h -63.3354 z m 73.18755,0 v 54.2299 7.1273 62.9067 h 25.80329 c 35.48634,0 64.11731,-27.7082 64.11731,-62.132 0,-34.4237 -28.63097,-62.1319 -64.11731,-62.1319 z"
           style="display:inline;fill:#ffffff;fill-opacity:1;filter:url(#filter6976-3)"
           transform="scale(1.0666667)" />
        <path
           inkscape:connector-curvature="0"
           id="path4621"
           d="m 327.51042,1187.075 c -3.47117,0 -6.17292,2.842 -6.17292,6.2813 0,0.3639 0.0355,0.7187 0.0938,1.0666 0.49128,-2.9402 2.97487,-5.2146 6.07917,-5.2146 3.08164,0 5.68102,2.241 6.22708,5.15 0.0655,-0.3296 0.11042,-0.6649 0.11042,-1.002 0,-3.4393 -2.86632,-6.2813 -6.3375,-6.2813 z m -19.18334,3.9667 c -3.47117,0 -6.33958,2.6754 -6.33958,6.1146 0,0.3649 0.0381,0.722 0.0999,1.0708 0.52046,-2.911 3.13612,-5.0521 6.23958,-5.0521 3.08065,0 5.67987,2.1092 6.22708,4.9875 0.0654,-0.3304 0.11042,-0.6677 0.11042,-1.0062 0,-3.4392 -2.86632,-6.1146 -6.3375,-6.1146 z m 25.45417,5.2166 c -0.0847,0.5396 -0.24295,1.0639 -0.43334,1.5438 -0.0227,0.048 0.0227,0.119 0,0.1666 l 11.51043,11.2376 h 29.35832 l 16.0125,15.8667 v -2.1334 l -16.0125,-15.8666 h -29.35832 z m -19.18542,3.8042 c -0.0838,0.537 -0.2383,1.0602 -0.43124,1.5417 -0.0227,0.049 0.0227,0.1164 0,0.1645 l 7.00625,6.9417 5.83749,5.7854 7.84168,7.7667 h 45.70416 L 378.4,1220.1292 h -43.54999 l -7.84168,-7.7667 -5.83749,-5.7854 z m -17.77917,23.2083 c -6.46776,0 -11.84374,5.1606 -11.84374,11.5688 0,0.3604 0.023,0.7149 0.0562,1.0666 0.55787,-5.9036 5.68347,-10.502 11.7875,-10.502 5.09554,0 9.2314,3.2648 10.84167,7.7667 h 82.57083 v -1.3209 l -0.82083,-0.8125 h -81.75 c -1.61027,-4.5018 -5.74613,-7.7667 -10.84167,-7.7667 z m -42.51041,17.2625 c -0.005,0.3564 -0.0271,0.7089 -0.0271,1.0667 0,36.7187 30.53958,66.275 68.39167,66.275 h 67.55832 v -2.1333 h -67.55832 c -37.48326,0 -67.77741,-28.9878 -68.36459,-65.2084 z m 242.32083,0 c -0.58718,36.2206 -30.88132,65.2084 -68.36458,65.2084 h -27.525 v 2.1333 h 27.525 c 37.85209,0 68.39167,-29.5563 68.39167,-66.275 0,-0.3578 -0.0213,-0.7103 -0.0271,-1.0667 z m -150.76874,13.1458 -11.84376,11.5709 c -1.54733,-0.7252 -3.19067,-1.1584 -5.00416,-1.1584 -6.46777,0 -11.67709,5.1606 -11.67709,11.5688 0,0.3598 0.022,0.7155 0.0542,1.0666 0.54114,-5.9036 5.51888,-10.502 11.62292,-10.502 1.8135,0 3.45683,0.4331 5.00416,1.1584 l 11.84376,-11.5709 h 44.37082 v -2.1334 h -44.37082 z m -5.69167,18.5167 -0.64792,0.6417 c 0.63536,1.2666 1.11495,2.6012 1.26667,4.0541 0.0441,-0.404 0.0687,-0.8154 0.0687,-1.2312 0,-1.2377 -0.27667,-2.3775 -0.6875,-3.4646 z"
           style="display:inline;fill:#1a237e;fill-opacity:0.2;stroke-width:1.06666672" />
        <path
           id="path4623"
           d="m 537.55622,1238.2166 a 162.13333,162.13333 0 0 1 -162.08957,161.2501 162.13333,162.13333 0 0 1 -162.08958,-160.8833 162.13333,162.13333 0 0 0 -0.0437,0.8833 A 162.13333,162.13333 0 0 0 375.46667,1401.6 162.13333,162.13333 0 0 0 537.6,1239.4667 a 162.13333,162.13333 0 0 0 -0.0437,-1.2501 z"
           style="fill:#1a237e;fill-opacity:0.2;stroke-width:1.06666672"
           inkscape:connector-curvature="0" />
      </g>
      <g
         id="g4625">
        <circle
           r="162.13333"
           cy="1239.4667"
           cx="375.46667"
           id="circle4627"
           style="fill:#42a5f5;fill-opacity:1;stroke-width:1.06666672" />
        <path
           inkscape:connector-curvature="0"
           style="fill:url(#linearGradient5089);fill-opacity:1;stroke-width:1.06666672"
           d="m 322.67111,1173.1929 c -37.85205,0 -68.39168,29.5562 -68.39168,66.2749 0,17.9775 7.32011,34.2368 19.23542,46.1521 l 115.34165,115.3417 a 162.13333,162.13333 0 0 0 148.07509,-148.1333 l -59.51466,-59.5147 c -12.42144,-12.4214 -29.83446,-20.1207 -49.15414,-20.1207 h -27.52501 v 10.5082 l -10.50827,-10.5082 h -67.55626 z"
           id="path4629" />
        <path
           style="display:inline;fill:#ffffff;fill-opacity:1;stroke-width:1.06666672"
           d="m 322.67153,1173.1929 c -37.85208,0 -68.39176,29.5554 -68.39176,66.274 0,36.7187 30.53968,66.2741 68.39176,66.2741 h 67.55773 v -44.4581 h -41.20189 l -9.5081,9.4205 c 0.76568,1.5264 1.33446,3.1425 1.33446,4.9581 0,6.4082 -5.37569,11.569 -11.84345,11.569 -6.46777,0 -11.67666,-5.1608 -11.67666,-11.569 0,-6.4082 5.20889,-11.569 11.67666,-11.569 1.8135,0 3.45694,0.4317 5.00427,1.1569 l 11.84349,-11.5691 h 44.37122 v -15.0398 h -82.57055 c -1.61027,4.5019 -5.74707,7.7678 -10.8426,7.7678 -6.46778,0 -11.84348,-5.1608 -11.84348,-11.5689 0,-6.4083 5.3757,-11.5692 11.84348,-11.5692 5.09553,0 9.23233,3.266 10.8426,7.7679 h 82.57055 v -1.3223 l -4.83744,-4.7928 h -52.54491 l -9.34135,-9.2553 -5.8383,-5.7845 -6.83917,-6.9414 h -0.16664 c -0.71709,0.2825 -1.52317,0.4959 -2.33535,0.4959 -3.47117,0 -6.33875,-2.8412 -6.33875,-6.2805 0,-3.4391 2.86758,-6.115 6.33875,-6.115 3.47118,0 6.33876,2.6759 6.33876,6.115 0,0.8047 -0.21548,1.6034 -0.50016,2.3138 -0.0227,0.049 0.0227,0.1171 0,0.1652 l 7.00601,6.9414 5.83829,5.7845 7.84003,7.7678 h 45.70576 l -8.34046,-8.2636 h -29.35844 l -12.8443,-12.7259 h -0.16663 c -0.71262,0.2779 -1.52317,0.4958 -2.33535,0.4958 -3.47117,0 -6.17194,-2.8411 -6.17194,-6.2804 0,-3.4392 2.70077,-6.2803 6.17194,-6.2803 3.47118,0 6.33876,2.8411 6.33876,6.2803 0,0.8047 -0.22003,1.6078 -0.50016,2.3139 -0.0227,0.048 0.0227,0.1174 0,0.1651 l 11.50984,11.2385 h 29.35844 l 16.01368,15.8661 v -49.7469 h -67.55776 z m 78.06672,0 v 57.8452 7.6024 67.1005 h 27.52351 c 37.8521,0 68.3918,-29.5554 68.3918,-66.2741 0,-36.7186 -30.5397,-66.274 -68.3918,-66.274 z"
           id="path4631"
           inkscape:connector-curvature="0" />
        <path
           style="display:inline;fill:#ffffff;fill-opacity:1;filter:url(#filter6976-3)"
           d="m 302.50456,1099.8683 c -35.48633,0 -64.11728,27.7082 -64.11728,62.1319 0,34.4238 28.63095,62.132 64.11728,62.132 h 63.33537 v -41.6795 h -38.62677 l -8.91384,8.8317 c 0.71782,1.431 1.25105,2.9461 1.25105,4.6483 0,6.0076 -5.03971,10.8459 -11.10323,10.8459 -6.06354,0 -10.94687,-4.8383 -10.94687,-10.8459 0,-6.0077 4.88333,-10.846 10.94687,-10.846 1.70015,0 3.24088,0.4047 4.6915,1.0846 l 11.10327,-10.846 h 41.59802 v -14.0998 h -77.40989 c -1.50963,4.2205 -5.38788,7.2823 -10.16494,7.2823 -6.06354,0 -11.10326,-4.8383 -11.10326,-10.8459 0,-6.0077 5.03972,-10.8461 11.10326,-10.8461 4.77706,0 8.65531,3.0619 10.16494,7.2824 h 77.40989 v -1.2396 l -4.5351,-4.4933 h -49.26085 l -8.75752,-8.6768 -5.4734,-5.423 -6.41173,-6.5076 h -0.15622 c -0.67227,0.2649 -1.42797,0.4649 -2.18939,0.4649 -3.25422,0 -5.94258,-2.6636 -5.94258,-5.8879 0,-3.2242 2.68836,-5.7328 5.94258,-5.7328 3.25423,0 5.94259,2.5086 5.94259,5.7328 0,0.7544 -0.20202,1.5032 -0.4689,2.1692 -0.0213,0.046 0.0213,0.1097 0,0.1548 l 6.56813,6.5076 5.4734,5.423 7.35003,7.2823 h 42.84915 l -7.81919,-7.7471 H 321.4274 l -12.04153,-11.9306 h -0.15622 c -0.66808,0.2606 -1.42797,0.4648 -2.18939,0.4648 -3.25422,0 -5.78619,-2.6635 -5.78619,-5.8878 0,-3.2243 2.53197,-5.8878 5.78619,-5.8878 3.25423,0 5.94259,2.6635 5.94259,5.8878 0,0.7544 -0.20628,1.5073 -0.4689,2.1692 -0.0213,0.045 0.0213,0.1101 0,0.1548 l 10.79047,10.5361 h 27.52354 l 15.01282,14.8745 v -46.6377 h -63.3354 z m 73.18755,0 v 54.2299 7.1273 62.9067 h 25.80329 c 35.48634,0 64.11731,-27.7082 64.11731,-62.132 0,-34.4237 -28.63097,-62.1319 -64.11731,-62.1319 z"
           id="path4633"
           inkscape:connector-curvature="0"
           transform="scale(1.0666667)" />
        <path
           style="display:inline;fill:#1a237e;fill-opacity:0.2;stroke-width:1.06666672"
           d="m 327.51042,1187.075 c -3.47117,0 -6.17292,2.842 -6.17292,6.2813 0,0.3639 0.0355,0.7187 0.0938,1.0666 0.49128,-2.9402 2.97487,-5.2146 6.07917,-5.2146 3.08164,0 5.68102,2.241 6.22708,5.15 0.0655,-0.3296 0.11042,-0.6649 0.11042,-1.002 0,-3.4393 -2.86632,-6.2813 -6.3375,-6.2813 z m -19.18334,3.9667 c -3.47117,0 -6.33958,2.6754 -6.33958,6.1146 0,0.3649 0.0381,0.722 0.0999,1.0708 0.52046,-2.911 3.13612,-5.0521 6.23958,-5.0521 3.08065,0 5.67987,2.1092 6.22708,4.9875 0.0654,-0.3304 0.11042,-0.6677 0.11042,-1.0062 0,-3.4392 -2.86632,-6.1146 -6.3375,-6.1146 z m 25.45417,5.2166 c -0.0847,0.5396 -0.24295,1.0639 -0.43334,1.5438 -0.0227,0.048 0.0227,0.119 0,0.1666 l 11.51043,11.2376 h 29.35832 l 16.0125,15.8667 v -2.1334 l -16.0125,-15.8666 h -29.35832 z m -19.18542,3.8042 c -0.0838,0.537 -0.2383,1.0602 -0.43124,1.5417 -0.0227,0.049 0.0227,0.1164 0,0.1645 l 7.00625,6.9417 5.83749,5.7854 7.84168,7.7667 h 45.70416 L 378.4,1220.1292 h -43.54999 l -7.84168,-7.7667 -5.83749,-5.7854 z m -17.77917,23.2083 c -6.46776,0 -11.84374,5.1606 -11.84374,11.5688 0,0.3604 0.023,0.7149 0.0562,1.0666 0.55787,-5.9036 5.68347,-10.502 11.7875,-10.502 5.09554,0 9.2314,3.2648 10.84167,7.7667 h 82.57083 v -1.3209 l -0.82083,-0.8125 h -81.75 c -1.61027,-4.5018 -5.74613,-7.7667 -10.84167,-7.7667 z m -42.51041,17.2625 c -0.005,0.3564 -0.0271,0.7089 -0.0271,1.0667 0,36.7187 30.53958,66.275 68.39167,66.275 h 67.55832 v -2.1333 h -67.55832 c -37.48326,0 -67.77741,-28.9878 -68.36459,-65.2084 z m 242.32083,0 c -0.58718,36.2206 -30.88132,65.2084 -68.36458,65.2084 h -27.525 v 2.1333 h 27.525 c 37.85209,0 68.39167,-29.5563 68.39167,-66.275 0,-0.3578 -0.0213,-0.7103 -0.0271,-1.0667 z m -150.76874,13.1458 -11.84376,11.5709 c -1.54733,-0.7252 -3.19067,-1.1584 -5.00416,-1.1584 -6.46777,0 -11.67709,5.1606 -11.67709,11.5688 0,0.3598 0.022,0.7155 0.0542,1.0666 0.54114,-5.9036 5.51888,-10.502 11.62292,-10.502 1.8135,0 3.45683,0.4331 5.00416,1.1584 l 11.84376,-11.5709 h 44.37082 v -2.1334 h -44.37082 z m -5.69167,18.5167 -0.64792,0.6417 c 0.63536,1.2666 1.11495,2.6012 1.26667,4.0541 0.0441,-0.404 0.0687,-0.8154 0.0687,-1.2312 0,-1.2377 -0.27667,-2.3775 -0.6875,-3.4646 z"
           id="path4635"
           inkscape:connector-curvature="0" />
        <path
           inkscape:connector-curvature="0"
           style="fill:#1a237e;fill-opacity:0.2;stroke-width:1.06666672"
           d="m 537.55622,1238.2166 a 162.13333,162.13333 0 0 1 -162.08957,161.2501 162.13333,162.13333 0 0 1 -162.08958,-160.8833 162.13333,162.13333 0 0 0 -0.0437,0.8833 A 162.13333,162.13333 0 0 0 375.46667,1401.6 162.13333,162.13333 0 0 0 537.6,1239.4667 a 162.13333,162.13333 0 0 0 -0.0437,-1.2501 z"
           id="path4637" />
      </g>
      <g
         id="g4639">
        <circle
           style="fill:#42a5f5;fill-opacity:1;stroke-width:1.06666672"
           id="circle4641"
           cx="375.46667"
           cy="1239.4667"
           r="162.13333" />
        <path
           id="path4643"
           d="m 322.67111,1173.1929 c -37.85205,0 -68.39168,29.5562 -68.39168,66.2749 0,17.9775 7.32011,34.2368 19.23542,46.1521 l 115.34165,115.3417 a 162.13333,162.13333 0 0 0 148.07509,-148.1333 l -59.51466,-59.5147 c -12.42144,-12.4214 -29.83446,-20.1207 -49.15414,-20.1207 h -27.52501 v 10.5082 l -10.50827,-10.5082 h -67.55626 z"
           style="fill:url(#linearGradient5091);fill-opacity:1;stroke-width:1.06666672"
           inkscape:connector-curvature="0" />
        <path
           inkscape:connector-curvature="0"
           id="path4645"
           d="m 322.67153,1173.1929 c -37.85208,0 -68.39176,29.5554 -68.39176,66.274 0,36.7187 30.53968,66.2741 68.39176,66.2741 h 67.55773 v -44.4581 h -41.20189 l -9.5081,9.4205 c 0.76568,1.5264 1.33446,3.1425 1.33446,4.9581 0,6.4082 -5.37569,11.569 -11.84345,11.569 -6.46777,0 -11.67666,-5.1608 -11.67666,-11.569 0,-6.4082 5.20889,-11.569 11.67666,-11.569 1.8135,0 3.45694,0.4317 5.00427,1.1569 l 11.84349,-11.5691 h 44.37122 v -15.0398 h -82.57055 c -1.61027,4.5019 -5.74707,7.7678 -10.8426,7.7678 -6.46778,0 -11.84348,-5.1608 -11.84348,-11.5689 0,-6.4083 5.3757,-11.5692 11.84348,-11.5692 5.09553,0 9.23233,3.266 10.8426,7.7679 h 82.57055 v -1.3223 l -4.83744,-4.7928 h -52.54491 l -9.34135,-9.2553 -5.8383,-5.7845 -6.83917,-6.9414 h -0.16664 c -0.71709,0.2825 -1.52317,0.4959 -2.33535,0.4959 -3.47117,0 -6.33875,-2.8412 -6.33875,-6.2805 0,-3.4391 2.86758,-6.115 6.33875,-6.115 3.47118,0 6.33876,2.6759 6.33876,6.115 0,0.8047 -0.21548,1.6034 -0.50016,2.3138 -0.0227,0.049 0.0227,0.1171 0,0.1652 l 7.00601,6.9414 5.83829,5.7845 7.84003,7.7678 h 45.70576 l -8.34046,-8.2636 h -29.35844 l -12.8443,-12.7259 h -0.16663 c -0.71262,0.2779 -1.52317,0.4958 -2.33535,0.4958 -3.47117,0 -6.17194,-2.8411 -6.17194,-6.2804 0,-3.4392 2.70077,-6.2803 6.17194,-6.2803 3.47118,0 6.33876,2.8411 6.33876,6.2803 0,0.8047 -0.22003,1.6078 -0.50016,2.3139 -0.0227,0.048 0.0227,0.1174 0,0.1651 l 11.50984,11.2385 h 29.35844 l 16.01368,15.8661 v -49.7469 h -67.55776 z m 78.06672,0 v 57.8452 7.6024 67.1005 h 27.52351 c 37.8521,0 68.3918,-29.5554 68.3918,-66.2741 0,-36.7186 -30.5397,-66.274 -68.3918,-66.274 z"
           style="display:inline;fill:#ffffff;fill-opacity:1;stroke-width:1.06666672" />
        <path
           inkscape:connector-curvature="0"
           id="path4647"
           d="m 302.50456,1099.8683 c -35.48633,0 -64.11728,27.7082 -64.11728,62.1319 0,34.4238 28.63095,62.132 64.11728,62.132 h 63.33537 v -41.6795 h -38.62677 l -8.91384,8.8317 c 0.71782,1.431 1.25105,2.9461 1.25105,4.6483 0,6.0076 -5.03971,10.8459 -11.10323,10.8459 -6.06354,0 -10.94687,-4.8383 -10.94687,-10.8459 0,-6.0077 4.88333,-10.846 10.94687,-10.846 1.70015,0 3.24088,0.4047 4.6915,1.0846 l 11.10327,-10.846 h 41.59802 v -14.0998 h -77.40989 c -1.50963,4.2205 -5.38788,7.2823 -10.16494,7.2823 -6.06354,0 -11.10326,-4.8383 -11.10326,-10.8459 0,-6.0077 5.03972,-10.8461 11.10326,-10.8461 4.77706,0 8.65531,3.0619 10.16494,7.2824 h 77.40989 v -1.2396 l -4.5351,-4.4933 h -49.26085 l -8.75752,-8.6768 -5.4734,-5.423 -6.41173,-6.5076 h -0.15622 c -0.67227,0.2649 -1.42797,0.4649 -2.18939,0.4649 -3.25422,0 -5.94258,-2.6636 -5.94258,-5.8879 0,-3.2242 2.68836,-5.7328 5.94258,-5.7328 3.25423,0 5.94259,2.5086 5.94259,5.7328 0,0.7544 -0.20202,1.5032 -0.4689,2.1692 -0.0213,0.046 0.0213,0.1097 0,0.1548 l 6.56813,6.5076 5.4734,5.423 7.35003,7.2823 h 42.84915 l -7.81919,-7.7471 H 321.4274 l -12.04153,-11.9306 h -0.15622 c -0.66808,0.2606 -1.42797,0.4648 -2.18939,0.4648 -3.25422,0 -5.78619,-2.6635 -5.78619,-5.8878 0,-3.2243 2.53197,-5.8878 5.78619,-5.8878 3.25423,0 5.94259,2.6635 5.94259,5.8878 0,0.7544 -0.20628,1.5073 -0.4689,2.1692 -0.0213,0.045 0.0213,0.1101 0,0.1548 l 10.79047,10.5361 h 27.52354 l 15.01282,14.8745 v -46.6377 h -63.3354 z m 73.18755,0 v 54.2299 7.1273 62.9067 h 25.80329 c 35.48634,0 64.11731,-27.7082 64.11731,-62.132 0,-34.4237 -28.63097,-62.1319 -64.11731,-62.1319 z"
           style="display:inline;fill:#ffffff;fill-opacity:1;filter:url(#filter6976-3)"
           transform="scale(1.0666667)" />
        <path
           inkscape:connector-curvature="0"
           id="path4649"
           d="m 327.51042,1187.075 c -3.47117,0 -6.17292,2.842 -6.17292,6.2813 0,0.3639 0.0355,0.7187 0.0938,1.0666 0.49128,-2.9402 2.97487,-5.2146 6.07917,-5.2146 3.08164,0 5.68102,2.241 6.22708,5.15 0.0655,-0.3296 0.11042,-0.6649 0.11042,-1.002 0,-3.4393 -2.86632,-6.2813 -6.3375,-6.2813 z m -19.18334,3.9667 c -3.47117,0 -6.33958,2.6754 -6.33958,6.1146 0,0.3649 0.0381,0.722 0.0999,1.0708 0.52046,-2.911 3.13612,-5.0521 6.23958,-5.0521 3.08065,0 5.67987,2.1092 6.22708,4.9875 0.0654,-0.3304 0.11042,-0.6677 0.11042,-1.0062 0,-3.4392 -2.86632,-6.1146 -6.3375,-6.1146 z m 25.45417,5.2166 c -0.0847,0.5396 -0.24295,1.0639 -0.43334,1.5438 -0.0227,0.048 0.0227,0.119 0,0.1666 l 11.51043,11.2376 h 29.35832 l 16.0125,15.8667 v -2.1334 l -16.0125,-15.8666 h -29.35832 z m -19.18542,3.8042 c -0.0838,0.537 -0.2383,1.0602 -0.43124,1.5417 -0.0227,0.049 0.0227,0.1164 0,0.1645 l 7.00625,6.9417 5.83749,5.7854 7.84168,7.7667 h 45.70416 L 378.4,1220.1292 h -43.54999 l -7.84168,-7.7667 -5.83749,-5.7854 z m -17.77917,23.2083 c -6.46776,0 -11.84374,5.1606 -11.84374,11.5688 0,0.3604 0.023,0.7149 0.0562,1.0666 0.55787,-5.9036 5.68347,-10.502 11.7875,-10.502 5.09554,0 9.2314,3.2648 10.84167,7.7667 h 82.57083 v -1.3209 l -0.82083,-0.8125 h -81.75 c -1.61027,-4.5018 -5.74613,-7.7667 -10.84167,-7.7667 z m -42.51041,17.2625 c -0.005,0.3564 -0.0271,0.7089 -0.0271,1.0667 0,36.7187 30.53958,66.275 68.39167,66.275 h 67.55832 v -2.1333 h -67.55832 c -37.48326,0 -67.77741,-28.9878 -68.36459,-65.2084 z m 242.32083,0 c -0.58718,36.2206 -30.88132,65.2084 -68.36458,65.2084 h -27.525 v 2.1333 h 27.525 c 37.85209,0 68.39167,-29.5563 68.39167,-66.275 0,-0.3578 -0.0213,-0.7103 -0.0271,-1.0667 z m -150.76874,13.1458 -11.84376,11.5709 c -1.54733,-0.7252 -3.19067,-1.1584 -5.00416,-1.1584 -6.46777,0 -11.67709,5.1606 -11.67709,11.5688 0,0.3598 0.022,0.7155 0.0542,1.0666 0.54114,-5.9036 5.51888,-10.502 11.62292,-10.502 1.8135,0 3.45683,0.4331 5.00416,1.1584 l 11.84376,-11.5709 h 44.37082 v -2.1334 h -44.37082 z m -5.69167,18.5167 -0.64792,0.6417 c 0.63536,1.2666 1.11495,2.6012 1.26667,4.0541 0.0441,-0.404 0.0687,-0.8154 0.0687,-1.2312 0,-1.2377 -0.27667,-2.3775 -0.6875,-3.4646 z"
           style="display:inline;fill:#1a237e;fill-opacity:0.2;stroke-width:1.06666672" />
        <path
           id="path4651"
           d="m 537.55622,1238.2166 a 162.13333,162.13333 0 0 1 -162.08957,161.2501 162.13333,162.13333 0 0 1 -162.08958,-160.8833 162.13333,162.13333 0 0 0 -0.0437,0.8833 A 162.13333,162.13333 0 0 0 375.46667,1401.6 162.13333,162.13333 0 0 0 537.6,1239.4667 a 162.13333,162.13333 0 0 0 -0.0437,-1.2501 z"
           style="fill:#1a237e;fill-opacity:0.2;stroke-width:1.06666672"
           inkscape:connector-curvature="0" />
      </g>
      <circle
         style="fill:#42a5f5;fill-opacity:1;stroke-width:1.06666672"
         id="circle4653"
         cx="375.46667"
         cy="1239.4667"
         r="162.13333" />
      <path
         id="path4655"
         d="m 322.67111,1173.1929 c -37.85205,0 -68.39168,29.5562 -68.39168,66.2749 0,17.9775 7.32011,34.2368 19.23542,46.1521 l 115.34165,115.3417 a 162.13333,162.13333 0 0 0 148.07509,-148.1333 l -59.51466,-59.5147 c -12.42144,-12.4214 -29.83446,-20.1207 -49.15414,-20.1207 h -27.52501 v 10.5082 l -10.50827,-10.5082 h -67.55626 z"
         style="fill:url(#linearGradient4665);fill-opacity:1;stroke-width:1.06666672"
         inkscape:connector-curvature="0" />
      <path
         style="display:inline;opacity:1;fill:#263238;fill-opacity:0.2;filter:url(#filter4508-5)"
         d="m 302.50456,1107.8688 c -35.48633,0 -64.11728,27.7082 -64.11728,62.1319 0,34.4238 28.63095,62.132 64.11728,62.132 h 63.33537 v -41.6795 h -38.62677 l -8.91384,8.8317 c 0.71782,1.431 1.25105,2.9461 1.25105,4.6483 0,6.0076 -5.03971,10.8459 -11.10323,10.8459 -6.06354,0 -10.94687,-4.8383 -10.94687,-10.8459 0,-6.0077 4.88333,-10.846 10.94687,-10.846 1.70015,0 3.24088,0.4047 4.6915,1.0846 l 11.10327,-10.846 h 41.59802 v -14.0998 h -77.40989 c -1.50963,4.2205 -5.38788,7.2823 -10.16494,7.2823 -6.06354,0 -11.10326,-4.8383 -11.10326,-10.8459 0,-6.0077 5.03972,-10.8461 11.10326,-10.8461 4.77706,0 8.65531,3.0619 10.16494,7.2824 h 77.40989 v -1.2396 l -4.5351,-4.4933 h -49.26085 l -8.75752,-8.6768 -5.4734,-5.423 -6.41173,-6.5076 h -0.15622 c -0.67227,0.2649 -1.42797,0.4649 -2.18939,0.4649 -3.25422,0 -5.94258,-2.6636 -5.94258,-5.8879 0,-3.2242 2.68836,-5.7328 5.94258,-5.7328 3.25423,0 5.94259,2.5086 5.94259,5.7328 0,0.7544 -0.20202,1.5032 -0.4689,2.1692 -0.0213,0.046 0.0213,0.1097 0,0.1548 l 6.56813,6.5076 5.4734,5.423 7.35003,7.2823 h 42.84915 l -7.81919,-7.7471 H 321.4274 l -12.04153,-11.9306 h -0.15622 c -0.66808,0.2606 -1.42797,0.4648 -2.18939,0.4648 -3.25422,0 -5.78619,-2.6635 -5.78619,-5.8878 0,-3.2243 2.53197,-5.8878 5.78619,-5.8878 3.25423,0 5.94259,2.6635 5.94259,5.8878 0,0.7544 -0.20628,1.5073 -0.4689,2.1692 -0.0213,0.045 0.0213,0.1101 0,0.1548 l 10.79047,10.5361 h 27.52354 l 15.01282,14.8745 v -46.6377 h -63.3354 z m 73.18755,0 v 54.2299 7.1273 62.9067 h 25.80329 c 35.48634,0 64.11731,-27.7082 64.11731,-62.132 0,-34.4237 -28.63097,-62.1319 -64.11731,-62.1319 z"
         id="path4657"
         inkscape:connector-curvature="0"
         transform="scale(1.0666667)" />
      <path
         inkscape:connector-curvature="0"
         id="path4659"
         d="m 322.67153,1173.1929 c -37.85208,0 -68.39176,29.5554 -68.39176,66.274 0,36.7187 30.53968,66.2741 68.39176,66.2741 h 67.55773 v -44.4581 h -41.20189 l -9.5081,9.4205 c 0.76568,1.5264 1.33446,3.1425 1.33446,4.9581 0,6.4082 -5.37569,11.569 -11.84345,11.569 -6.46777,0 -11.67666,-5.1608 -11.67666,-11.569 0,-6.4082 5.20889,-11.569 11.67666,-11.569 1.8135,0 3.45694,0.4317 5.00427,1.1569 l 11.84349,-11.5691 h 44.37122 v -15.0398 h -82.57055 c -1.61027,4.5019 -5.74707,7.7678 -10.8426,7.7678 -6.46778,0 -11.84348,-5.1608 -11.84348,-11.5689 0,-6.4083 5.3757,-11.5692 11.84348,-11.5692 5.09553,0 9.23233,3.266 10.8426,7.7679 h 82.57055 v -1.3223 l -4.83744,-4.7928 h -52.54491 l -9.34135,-9.2553 -5.8383,-5.7845 -6.83917,-6.9414 h -0.16664 c -0.71709,0.2825 -1.52317,0.4959 -2.33535,0.4959 -3.47117,0 -6.33875,-2.8412 -6.33875,-6.2805 0,-3.4391 2.86758,-6.115 6.33875,-6.115 3.47118,0 6.33876,2.6759 6.33876,6.115 0,0.8047 -0.21548,1.6034 -0.50016,2.3138 -0.0227,0.049 0.0227,0.1171 0,0.1652 l 7.00601,6.9414 5.83829,5.7845 7.84003,7.7678 h 45.70576 l -8.34046,-8.2636 h -29.35844 l -12.8443,-12.7259 h -0.16663 c -0.71262,0.2779 -1.52317,0.4958 -2.33535,0.4958 -3.47117,0 -6.17194,-2.8411 -6.17194,-6.2804 0,-3.4392 2.70077,-6.2803 6.17194,-6.2803 3.47118,0 6.33876,2.8411 6.33876,6.2803 0,0.8047 -0.22003,1.6078 -0.50016,2.3139 -0.0227,0.048 0.0227,0.1174 0,0.1651 l 11.50984,11.2385 h 29.35844 l 16.01368,15.8661 v -49.7469 h -67.55776 z m 78.06672,0 v 57.8452 7.6024 67.1005 h 27.52351 c 37.8521,0 68.3918,-29.5554 68.3918,-66.2741 0,-36.7186 -30.5397,-66.274 -68.3918,-66.274 z"
         style="display:inline;fill:#ffffff;fill-opacity:1;stroke-width:1.06666672" />
      <path
         inkscape:connector-curvature="0"
         id="path4661"
         d="m 327.51042,1187.075 c -3.47117,0 -6.17292,2.842 -6.17292,6.2813 0,0.3639 0.0355,0.7187 0.0938,1.0666 0.49128,-2.9402 2.97487,-5.2146 6.07917,-5.2146 3.08164,0 5.68102,2.241 6.22708,5.15 0.0655,-0.3296 0.11042,-0.6649 0.11042,-1.002 0,-3.4393 -2.86632,-6.2813 -6.3375,-6.2813 z m -19.18334,3.9667 c -3.47117,0 -6.33958,2.6754 -6.33958,6.1146 0,0.3649 0.0381,0.722 0.0999,1.0708 0.52046,-2.911 3.13612,-5.0521 6.23958,-5.0521 3.08065,0 5.67987,2.1092 6.22708,4.9875 0.0654,-0.3304 0.11042,-0.6677 0.11042,-1.0062 0,-3.4392 -2.86632,-6.1146 -6.3375,-6.1146 z m 25.45417,5.2166 c -0.0847,0.5396 -0.24295,1.0639 -0.43334,1.5438 -0.0227,0.048 0.0227,0.119 0,0.1666 l 11.51043,11.2376 h 29.35832 l 16.0125,15.8667 v -2.1334 l -16.0125,-15.8666 h -29.35832 z m -19.18542,3.8042 c -0.0838,0.537 -0.2383,1.0602 -0.43124,1.5417 -0.0227,0.049 0.0227,0.1164 0,0.1645 l 7.00625,6.9417 5.83749,5.7854 7.84168,7.7667 h 45.70416 L 378.4,1220.1292 h -43.54999 l -7.84168,-7.7667 -5.83749,-5.7854 z m -17.77917,23.2083 c -6.46776,0 -11.84374,5.1606 -11.84374,11.5688 0,0.3604 0.023,0.7149 0.0562,1.0666 0.55787,-5.9036 5.68347,-10.502 11.7875,-10.502 5.09554,0 9.2314,3.2648 10.84167,7.7667 h 82.57083 v -1.3209 l -0.82083,-0.8125 h -81.75 c -1.61027,-4.5018 -5.74613,-7.7667 -10.84167,-7.7667 z m -42.51041,17.2625 c -0.005,0.3564 -0.0271,0.7089 -0.0271,1.0667 0,36.7187 30.53958,66.275 68.39167,66.275 h 67.55832 v -2.1333 h -67.55832 c -37.48326,0 -67.77741,-28.9878 -68.36459,-65.2084 z m 242.32083,0 c -0.58718,36.2206 -30.88132,65.2084 -68.36458,65.2084 h -27.525 v 2.1333 h 27.525 c 37.85209,0 68.39167,-29.5563 68.39167,-66.275 0,-0.3578 -0.0213,-0.7103 -0.0271,-1.0667 z m -150.76874,13.1458 -11.84376,11.5709 c -1.54733,-0.7252 -3.19067,-1.1584 -5.00416,-1.1584 -6.46777,0 -11.67709,5.1606 -11.67709,11.5688 0,0.3598 0.022,0.7155 0.0542,1.0666 0.54114,-5.9036 5.51888,-10.502 11.62292,-10.502 1.8135,0 3.45683,0.4331 5.00416,1.1584 l 11.84376,-11.5709 h 44.37082 v -2.1334 h -44.37082 z m -5.69167,18.5167 -0.64792,0.6417 c 0.63536,1.2666 1.11495,2.6012 1.26667,4.0541 0.0441,-0.404 0.0687,-0.8154 0.0687,-1.2312 0,-1.2377 -0.27667,-2.3775 -0.6875,-3.4646 z"
         style="display:inline;fill:#1a237e;fill-opacity:0.2;stroke-width:1.06666672" />
      <path
         id="path4663"
         d="m 537.55622,1238.2166 a 162.13333,162.13333 0 0 1 -162.08957,161.2501 162.13333,162.13333 0 0 1 -162.08958,-160.8833 162.13333,162.13333 0 0 0 -0.0437,0.8833 A 162.13333,162.13333 0 0 0 375.46667,1401.6 162.13333,162.13333 0 0 0 537.6,1239.4667 a 162.13333,162.13333 0 0 0 -0.0437,-1.2501 z"
         style="fill:#1a237e;fill-opacity:0.2;stroke-width:1.06666672"
         inkscape:connector-curvature="0" />
    </g>
  </g>
</svg>
