<?xml version="1.0" encoding="UTF-8" standalone="no"?>
<!-- Created with Inkscape (http://www.inkscape.org/) -->

<svg
   xmlns:dc="http://purl.org/dc/elements/1.1/"
   xmlns:cc="http://creativecommons.org/ns#"
   xmlns:rdf="http://www.w3.org/1999/02/22-rdf-syntax-ns#"
   xmlns:svg="http://www.w3.org/2000/svg"
   xmlns="http://www.w3.org/2000/svg"
   xmlns:sodipodi="http://sodipodi.sourceforge.net/DTD/sodipodi-0.dtd"
   xmlns:inkscape="http://www.inkscape.org/namespaces/inkscape"
   width="100"
   height="100"
   viewBox="0 0 26.458333 26.458334"
   version="1.1"
   id="svg4001"
   inkscape:version="0.92.1 r"
   sodipodi:docname="twitter-icon.svg">
  <defs
     id="defs3995" />
  <sodipodi:namedview
     id="base"
     pagecolor="#ffffff"
     bordercolor="#666666"
     borderopacity="1.0"
     inkscape:pageopacity="0.0"
     inkscape:pageshadow="2"
     inkscape:zoom="3.959798"
     inkscape:cx="37.906302"
     inkscape:cy="48.728072"
     inkscape:document-units="mm"
     inkscape:current-layer="layer1"
     showgrid="false"
     units="px"
     inkscape:window-width="1920"
     inkscape:window-height="1025"
     inkscape:window-x="0"
     inkscape:window-y="27"
     inkscape:window-maximized="1" />
  <metadata
     id="metadata3998">
    <rdf:RDF>
      <cc:Work
         rdf:about="">
        <dc:format>image/svg+xml</dc:format>
        <dc:type
           rdf:resource="http://purl.org/dc/dcmitype/StillImage" />
        <dc:title></dc:title>
      </cc:Work>
    </rdf:RDF>
  </metadata>
  <g
     inkscape:label="Layer 1"
     inkscape:groupmode="layer"
     id="layer1"
     transform="translate(0,-270.54165)">
    <g
       id="g3987"
       transform="translate(5.9449894,-46.308346)">
      <circle
         style="opacity:1;fill:#1da1f2;fill-opacity:1;stroke:none;stroke-width:0.72780097;stroke-linecap:round;stroke-linejoin:round;stroke-miterlimit:4;stroke-dasharray:none;stroke-dashoffset:0;stroke-opacity:1;paint-order:stroke fill markers"
         id="circle3939"
         cx="7.2841773"
         cy="330.07916"
         r="13.229167" />
      <path
         style="fill:#ffffff;fill-opacity:1;stroke-width:0.06214959"
         inkscape:connector-curvature="0"
         d="m 3.8483393,337.60517 c 6.9893427,0 10.8115427,-5.79035 10.8115427,-10.81154 0,-0.16447 -0.0034,-0.32819 -0.01073,-0.49117 0.741942,-0.53636 1.386806,-1.2057 1.895438,-1.96765 -0.680849,0.30263 -1.41353,0.50635 -2.182134,0.59822 0.784514,-0.47043 1.386806,-1.21459 1.670954,-2.10172 -0.734174,0.43524 -1.547214,0.75158 -2.412896,0.92237 -0.693403,-0.73859 -1.680587,-1.20055 -2.773674,-1.20055 -2.0984188,0 -3.8000748,1.70172 -3.8000748,3.79933 0,0.29818 0.03334,0.58822 0.09853,0.86643 -3.1581311,-0.15891 -5.9585295,-1.67095 -7.8327126,-3.97012 -0.326335,0.56155 -0.5145053,1.21385 -0.5145053,1.90986 0,1.31832 0.6708426,2.48213 1.690966,3.16298 -0.6234225,-0.0193 -1.2090581,-0.1904 -1.7209221,-0.47525 -5.594e-4,0.0159 -5.594e-4,0.0315 -5.594e-4,0.0485 0,1.84025 1.3098026,3.37671 3.0484996,3.72487 -0.3192998,0.087 -0.6552432,0.13372 -1.0019757,0.13372 -0.2444717,0 -0.4826538,-0.0241 -0.714161,-0.0685 0.48376,1.5098 1.8865508,2.60848 3.5496739,2.63918 -1.3005424,1.01938 -2.9388677,1.62652 -4.7194535,1.62652 -0.3063353,0 -0.6089603,-0.0174 -0.9063896,-0.0526 1.6817058,1.07792 3.6785721,1.70687 5.8247839,1.70687"
         id="path3941" />
    </g>
  </g>
</svg>
